<?xml version="1.0" standalone="no"?>
<!DOCTYPE svg PUBLIC "-//W3C//DTD SVG 20010904//EN"
 "http://www.w3.org/TR/2001/REC-SVG-20010904/DTD/svg10.dtd">
<svg version="1.0" xmlns="http://www.w3.org/2000/svg"
 width="322.000000pt" height="434.000000pt" viewBox="0 0 322.000000 434.000000"
 preserveAspectRatio="xMidYMid meet">

<g transform="translate(0.000000,434.000000) scale(0.100000,-0.100000)"
fill="#000000" stroke="none">
<path d="M3030 4221 l0 -119 -90 29 c-138 44 -262 61 -450 61 -189 0 -329 -18
-500 -64 -63 -17 -142 -35 -174 -40 -55 -9 -71 -19 -185 -109 -70 -54 -209
-163 -311 -241 -192 -149 -204 -162 -284 -306 -25 -46 -64 -106 -87 -133 -23
-28 -70 -108 -105 -179 -34 -71 -72 -138 -83 -149 -14 -14 -33 -73 -61 -191
l-41 -172 2 -208 2 -207 -68 -104 c-90 -139 -139 -196 -181 -211 -37 -13 -38
-16 -25 -37 15 -24 62 -14 165 34 54 25 100 44 103 41 12 -11 -239 -164 -429
-262 -112 -57 -196 -104 -187 -104 9 0 135 34 280 75 145 41 268 74 273 72 16
-5 -52 -51 -169 -116 -60 -33 -117 -65 -125 -70 -8 -5 55 8 140 30 145 36 230
48 230 32 0 -4 -25 -40 -56 -80 -73 -95 -205 -218 -285 -265 l-62 -37 78 -37
c68 -33 86 -37 144 -36 36 1 74 5 85 8 17 6 17 3 -4 -27 -40 -57 -221 -233
-292 -283 -37 -26 -114 -72 -170 -103 -57 -30 -94 -52 -83 -48 72 23 422 157
529 202 70 30 130 53 132 51 8 -8 -52 -120 -114 -213 -79 -120 -214 -257 -332
-339 l-85 -58 170 5 c94 3 213 13 265 22 160 29 331 90 413 147 16 11 29 19
31 17 1 -2 10 -60 20 -129 9 -69 19 -130 21 -137 3 -8 53 21 129 72 121 82
323 191 333 181 8 -8 -56 -127 -95 -176 -19 -25 -51 -60 -71 -78 -54 -50 -7
-21 93 56 l90 70 26 -37 c27 -36 100 -107 153 -148 17 -13 26 -27 21 -34 -5
-8 -3 -9 5 -5 8 5 52 -18 113 -59 55 -36 102 -65 104 -62 2 2 -11 37 -30 78
-56 121 -56 121 3 176 l52 48 -56 79 -55 80 -1 -65 c-1 -35 -4 -75 -9 -89 l-7
-25 -12 28 c-6 16 -20 75 -32 132 -19 92 -19 106 -6 127 8 12 21 50 28 83 7
33 17 69 22 79 8 16 7 18 -9 11 -11 -4 -50 -18 -89 -30 -282 -92 -488 -68
-641 77 -65 61 -75 90 -109 300 -30 189 -30 183 -5 158 11 -11 28 -20 39 -20
18 0 18 -2 3 -43 -9 -24 -13 -51 -9 -60 14 -37 37 -30 97 27 71 68 95 71 115
12 16 -47 29 -60 49 -53 10 4 16 19 16 41 0 34 0 35 32 25 75 -21 146 -29 172
-19 30 11 32 28 11 71 -41 78 -246 145 -338 110 -14 -5 -39 -25 -56 -43 l-31
-33 -21 22 c-37 37 -20 66 57 97 145 58 302 57 433 -4 75 -35 132 -38 179 -10
38 23 36 33 -25 93 -32 33 -42 38 -68 32 -61 -13 -95 -6 -128 25 -41 40 -159
98 -219 109 -59 10 -78 25 -78 61 0 27 -20 52 -51 63 -14 5 -16 -2 -15 -46 l1
-51 -60 -18 c-68 -21 -85 -38 -85 -84 l0 -33 51 32 c41 25 65 32 118 35 83 5
131 -8 201 -53 l55 -36 -145 3 c-80 1 -155 -1 -167 -5 -17 -6 -23 -5 -23 7 0
24 -19 29 -66 16 -35 -10 -44 -17 -39 -29 24 -62 16 -81 -36 -87 -26 -3 -28
-1 -35 44 -11 72 -30 118 -94 228 -33 55 -77 138 -97 185 -33 74 -37 93 -37
164 0 65 7 100 36 185 52 155 53 162 18 227 -26 48 -30 66 -30 134 0 43 5 81
10 84 6 4 10 -23 10 -75 0 -75 2 -81 23 -89 19 -7 24 -19 32 -82 10 -71 11
-73 43 -81 21 -6 36 -17 42 -33 7 -19 17 -25 41 -25 l32 0 -21 -23 c-51 -54
-12 -89 78 -71 l47 10 -33 -71 c-62 -131 -65 -232 -8 -289 26 -27 34 -18 34
39 0 50 2 56 25 65 32 12 32 30 0 30 -24 0 -32 10 -18 23 3 4 13 1 21 -5 11
-10 17 -8 28 7 17 23 18 61 3 104 -12 35 -23 39 -38 14 -20 -35 -12 14 15 90
100 285 81 456 -55 483 -18 4 -42 20 -55 37 l-24 30 -34 -27 c-30 -23 -44 -26
-108 -26 l-73 0 7 30 c3 17 16 54 30 83 39 85 103 247 130 326 20 60 36 86 78
129 73 75 186 164 262 207 131 73 212 87 383 65 118 -16 117 -16 132 -57 44
-124 141 -288 228 -385 26 -30 76 -95 110 -144 35 -49 124 -161 199 -249 206
-242 278 -352 333 -513 26 -77 26 -92 1 -135 -17 -28 -29 -36 -63 -41 l-42 -7
30 -13 30 -13 -65 -64 c-36 -35 -92 -79 -125 -97 -45 -25 -53 -32 -30 -27 47
8 163 11 170 3 16 -16 -11 -51 -90 -118 -82 -68 -135 -131 -155 -184 -12 -32
-43 -47 -263 -131 -97 -37 -176 -70 -174 -72 5 -4 360 44 395 53 18 5 22 2 22
-14 0 -25 -17 -35 -124 -73 l-81 -29 90 6 c49 3 102 8 117 11 43 9 35 -14 -31
-93 -59 -68 -147 -146 -228 -199 -24 -15 -43 -30 -43 -32 0 -2 30 -18 68 -36
55 -25 78 -30 132 -29 58 1 213 35 264 57 16 7 12 -6 -20 -66 -59 -111 -164
-213 -283 -272 -51 -26 -88 -47 -82 -47 6 0 90 20 188 45 97 25 179 45 181 45
3 0 2 -37 -2 -82 l-7 -81 -97 -105 c-113 -121 -175 -192 -169 -192 10 0 214
93 317 145 61 31 116 53 121 49 6 -3 23 6 38 20 27 26 211 139 217 133 7 -6
-45 -104 -80 -152 -22 -29 21 9 103 92 78 79 141 141 141 138 0 -3 -25 -45
-55 -94 -68 -108 -128 -179 -161 -187 -27 -7 -30 -14 -12 -32 21 -21 52 -13
138 37 l85 48 3 -153 3 -154 44 0 45 0 0 2145 0 2145 -45 0 -45 0 0 -119z
m-2023 -1725 l42 0 -26 -28 c-19 -20 -39 -29 -81 -34 -53 -6 -57 -5 -79 22
-13 16 -23 32 -23 36 0 11 43 16 85 10 22 -3 59 -6 82 -6z"/>
<path d="M1709 3021 c-103 -8 -139 -26 -139 -72 l0 -31 46 7 c119 17 229 58
229 85 0 18 -20 19 -136 11z"/>
<path d="M1139 2900 l-24 -20 37 -34 c33 -32 101 -57 114 -43 11 11 -41 89
-68 103 -34 18 -31 18 -59 -6z"/>
<path d="M1596 2842 c-3 -3 -6 -13 -6 -23 0 -13 -25 -30 -86 -59 -86 -41 -86
-41 -125 -26 -31 13 -45 14 -61 5 -18 -10 -20 -17 -13 -57 4 -26 6 -71 6 -99
-2 -59 23 -126 57 -157 17 -15 32 -18 72 -14 54 5 69 -6 84 -64 7 -32 51 -58
96 -58 34 0 42 24 14 44 -12 9 -2 12 50 14 63 3 66 2 66 -20 0 -13 7 -32 15
-42 14 -19 16 -19 102 7 127 39 219 57 296 57 65 0 67 1 67 25 0 31 -53 91
-120 136 -27 19 -50 37 -50 41 0 3 24 0 53 -7 124 -32 160 -15 100 47 -15 16
-28 39 -28 50 0 18 -15 29 -75 54 -41 18 -96 36 -122 40 -35 5 -47 11 -46 23
5 62 -24 74 -169 70 -61 -2 -122 2 -140 8 -17 6 -34 9 -37 5z m289 -240 c51
-14 71 -23 74 -37 3 -17 -2 -18 -65 -12 -38 4 -89 7 -114 7 -43 0 -44 0 -22
16 12 8 22 22 22 30 0 18 20 18 105 -4z m-27 -239 c-10 -2 -26 -2 -35 0 -10 3
-2 5 17 5 19 0 27 -2 18 -5z"/>
<path d="M1245 2413 c-23 -55 -87 -274 -82 -279 9 -9 67 81 88 135 24 66 38
181 21 181 -7 0 -19 -17 -27 -37z"/>
<path d="M1438 2365 c-16 -36 2 -54 37 -35 27 15 31 30 13 48 -19 19 -37 14
-50 -13z"/>
<path d="M1608 2204 c-13 -13 -9 -61 7 -74 8 -6 32 -14 53 -17 32 -4 43 -1 61
18 25 27 26 42 7 58 -17 15 -118 26 -128 15z"/>
<path d="M799 2142 c-67 -47 -73 -71 -28 -118 37 -38 58 -42 82 -16 21 23 21
41 0 64 -15 17 -15 21 0 54 32 66 22 69 -54 16z"/>
<path d="M1259 2061 c-20 -16 -22 -21 -9 -35 20 -25 45 -37 145 -71 77 -26 91
-34 99 -58 8 -21 7 -35 -5 -55 -22 -40 -48 -38 -104 9 -58 48 -83 59 -133 59
-47 0 -116 -39 -120 -67 -5 -32 29 -45 132 -51 80 -4 100 -9 168 -43 103 -52
112 -51 106 6 -3 25 -2 45 3 45 5 0 16 14 24 31 15 28 15 33 -5 74 -25 52 -29
56 -103 85 -31 12 -82 38 -113 56 -31 19 -58 34 -59 34 -2 0 -13 -8 -26 -19z"/>
<path d="M1830 1886 c0 -44 10 -56 47 -56 41 0 88 -23 103 -49 15 -28 -1 -33
-53 -15 -61 21 -112 16 -112 -11 0 -15 12 -24 50 -37 121 -41 195 -10 211 90
5 35 3 42 -17 55 -24 15 -92 31 -181 41 -46 5 -48 4 -48 -18z"/>
<path d="M1083 1764 c-9 -24 9 -47 48 -60 31 -11 34 -10 37 8 5 30 -25 68 -54
68 -14 0 -27 -7 -31 -16z"/>
<path d="M1793 1308 c-33 -16 -39 -46 -15 -71 31 -31 52 -16 52 38 0 48 -2 50
-37 33z"/>
</g>
</svg>
